<svg xmlns="http://www.w3.org/2000/svg" viewBox="0 0 512 512"><defs><linearGradient id="g" x1="0" y1="0" x2="1" y2="1"><stop stop-color="#2AABEE"/><stop offset="1" stop-color="#21D4A8"/></linearGradient></defs><rect width="512" height="512" rx="132" fill="#071426"/><path fill="url(#g)" d="M256 54 416 123v117c0 102-65 169-160 218C161 409 96 342 96 240V123L256 54Z"/><path fill="#071426" d="M177 238c0-43 35-78 79-78s79 35 79 78v18h-44v-18c0-20-16-36-35-36s-35 16-35 36v18h-44v-18Zm-18 40h194v108H159V278Z"/></svg>