<svg xmlns="http://www.w3.org/2000/svg" viewBox="0 0 24 24" fill="none" stroke="currentColor" stroke-width="1.9" stroke-linecap="round" stroke-linejoin="round"><path d="M12 15.5a3.5 3.5 0 1 0 0-7 3.5 3.5 0 0 0 0 7Z"/><path d="M19.4 15a1.8 1.8 0 0 0 .4 2l.1.1-2 3.4-.2-.1a1.8 1.8 0 0 0-2.1.3l-.6.4a1.8 1.8 0 0 0-1 1.8V23h-4v-.2a1.8 1.8 0 0 0-1-1.8l-.6-.4a1.8 1.8 0 0 0-2.1-.3l-.2.1-2-3.4.1-.1a1.8 1.8 0 0 0 .4-2 7 7 0 0 1 0-1.8 1.8 1.8 0 0 0-.4-2l-.1-.1 2-3.4.2.1a1.8 1.8 0 0 0 2.1-.3l.6-.4a1.8 1.8 0 0 0 1-1.8V1h4v.2a1.8 1.8 0 0 0 1 1.8l.6.4a1.8 1.8 0 0 0 2.1.3l.2-.1 2 3.4-.1.1a1.8 1.8 0 0 0-.4 2 7 7 0 0 1 0 1.8Z"/></svg>